<svg height="250" version="1.1" width="303" xmlns="http://www.w3.org/2000/svg" xmlns:xlink="http://www.w3.org/1999/xlink" style="overflow: hidden; position: relative; left: -0.966675px; top: -0.700012px;"><desc>Created with Raphaël 2.1.4</desc><defs></defs><text style="text-anchor: end; font-family: sans-serif; font-size: 12px; font-weight: normal;" x="36.5" y="210" text-anchor="end" font-family="sans-serif" font-size="12px" stroke="none" fill="#888888" font-weight="normal"><tspan dy="4">0</tspan></text><text style="text-anchor: end; font-family: sans-serif; font-size: 12px; font-weight: normal;" x="36.5" y="163.75" text-anchor="end" font-family="sans-serif" font-size="12px" stroke="none" fill="#888888" font-weight="normal"><tspan dy="4">25</tspan></text><text style="text-anchor: end; font-family: sans-serif; font-size: 12px; font-weight: normal;" x="36.5" y="117.5" text-anchor="end" font-family="sans-serif" font-size="12px" stroke="none" fill="#888888" font-weight="normal"><tspan dy="4">50</tspan></text><text style="text-anchor: end; font-family: sans-serif; font-size: 12px; font-weight: normal;" x="36.5" y="71.25" text-anchor="end" font-family="sans-serif" font-size="12px" stroke="none" fill="#888888" font-weight="normal"><tspan dy="4">75</tspan></text><text style="text-anchor: end; font-family: sans-serif; font-size: 12px; font-weight: normal;" x="36.5" y="25" text-anchor="end" font-family="sans-serif" font-size="12px" stroke="none" fill="#888888" font-weight="normal"><tspan dy="4">100</tspan></text><text style="text-anchor: middle; font-family: sans-serif; font-size: 12px; font-weight: normal;" x="277.983" y="222.5" text-anchor="middle" font-family="sans-serif" font-size="12px" stroke="none" fill="#888888" font-weight="normal" transform="matrix(1,0,0,1,0,7.5)"><tspan dy="4">2011</tspan></text><text style="text-anchor: middle; font-family: sans-serif; font-size: 12px; font-weight: normal;" x="186.43996056955092" y="222.5" text-anchor="middle" font-family="sans-serif" font-size="12px" stroke="none" fill="#888888" font-weight="normal" transform="matrix(1,0,0,1,0,7.5)"><tspan dy="4">2009</tspan></text><text style="text-anchor: middle; font-family: sans-serif; font-size: 12px; font-weight: normal;" x="94.77151971522454" y="222.5" text-anchor="middle" font-family="sans-serif" font-size="12px" stroke="none" fill="#888888" font-weight="normal" transform="matrix(1,0,0,1,0,7.5)"><tspan dy="4">2007</tspan></text><path style="" fill="none" stroke="#d9e1fd" d="M49,210C60.442879928806136,173.925,83.3286397864184,68.475,94.77151971522454,65.69999999999999C106.21439964403068,62.92499999999999,129.10015950164296,181.33385772913817,140.54303943044908,187.8C152.01726971522453,194.28385772913816,174.96573028477547,137.87783857729139,186.43996056955092,117.5C197.88284049835704,97.17783857729137,220.76860035596934,28.46875,232.21148028477546,25C243.65436021358158,21.53125,266.5401200711939,73.5625,277.983,89.75" stroke-opacity="1" stroke-width="3"></path><path style="" fill="none" stroke="#464de4" d="M49,117.5C60.442879928806136,105.9375,83.3286397864184,66.625,94.77151971522454,71.25C106.21439964403068,75.875,129.10015950164296,145.2626538987688,140.54303943044908,154.5C152.01726971522453,163.7626538987688,174.96573028477547,154.5126538987688,186.43996056955092,145.25C197.88284049835704,136.0126538987688,220.76860035596934,90.44375,232.21148028477546,80.5C243.65436021358158,70.55625,266.5401200711939,69.39999999999999,277.983,65.69999999999999" stroke-opacity="0.8" stroke-width="3"></path><circle cx="49" cy="210" r="4" fill="#d9e1fd" stroke="#ffffff" style="" fill-opacity="1" stroke-width="1"></circle><circle cx="94.77151971522454" cy="65.69999999999999" r="4" fill="#d9e1fd" stroke="#ffffff" style="" fill-opacity="1" stroke-width="1"></circle><circle cx="140.54303943044908" cy="187.8" r="4" fill="#d9e1fd" stroke="#ffffff" style="" fill-opacity="1" stroke-width="1"></circle><circle cx="186.43996056955092" cy="117.5" r="4" fill="#d9e1fd" stroke="#ffffff" style="" fill-opacity="1" stroke-width="1"></circle><circle cx="232.21148028477546" cy="25" r="4" fill="#d9e1fd" stroke="#ffffff" style="" fill-opacity="1" stroke-width="1"></circle><circle cx="277.983" cy="89.75" r="4" fill="#d9e1fd" stroke="#ffffff" style="" fill-opacity="1" stroke-width="1"></circle><circle cx="49" cy="117.5" r="4" fill="#464de4" stroke="#ffffff" style="" fill-opacity="0.8" stroke-width="1"></circle><circle cx="94.77151971522454" cy="71.25" r="4" fill="#464de4" stroke="#ffffff" style="" fill-opacity="0.8" stroke-width="1"></circle><circle cx="140.54303943044908" cy="154.5" r="4" fill="#464de4" stroke="#ffffff" style="" fill-opacity="0.8" stroke-width="1"></circle><circle cx="186.43996056955092" cy="145.25" r="4" fill="#464de4" stroke="#ffffff" style="" fill-opacity="0.8" stroke-width="1"></circle><circle cx="232.21148028477546" cy="80.5" r="4" fill="#464de4" stroke="#ffffff" style="" fill-opacity="0.8" stroke-width="1"></circle><circle cx="277.983" cy="65.69999999999999" r="4" fill="#464de4" stroke="#ffffff" style="" fill-opacity="0.8" stroke-width="1"></circle></svg>